<svg xmlns="http://www.w3.org/2000/svg" width="320" height="200" viewBox="0 0 320 200" fill="none">
<rect width="320" height="200" rx="26" fill="#F7FAFF"/>
<rect x="20" y="22" width="280" height="156" rx="24" fill="#ffffff"/>
<rect x="38" y="42" width="244" height="28" rx="14" fill="#EEF1FF"/>
<rect x="38" y="84" width="70" height="76" rx="18" fill="url(#g2)"/>
<rect x="122" y="84" width="70" height="76" rx="18" fill="url(#g2)"/>
<rect x="206" y="84" width="70" height="76" rx="18" fill="url(#g2)"/>
<rect x="54" y="102" width="38" height="12" rx="6" fill="#fff" fill-opacity="0.84"/>
<rect x="138" y="102" width="38" height="12" rx="6" fill="#fff" fill-opacity="0.84"/>
<rect x="222" y="102" width="38" height="12" rx="6" fill="#fff" fill-opacity="0.84"/>
<rect x="50" y="126" width="18" height="18" rx="9" fill="#fff" fill-opacity="0.84"/>
<rect x="134" y="126" width="18" height="18" rx="9" fill="#fff" fill-opacity="0.84"/>
<rect x="218" y="126" width="18" height="18" rx="9" fill="#fff" fill-opacity="0.84"/>
<defs><linearGradient id="g2" x1="38" y1="84" x2="276" y2="160" gradientUnits="userSpaceOnUse"><stop stop-color="#4F46E5" stop-opacity="0.22"/><stop offset="1" stop-color="#22D3EE" stop-opacity="0.32"/></linearGradient></defs>
</svg>